# xmcd CD database file
#
# Track frame offsets:
#	150
#	13780
#	28772
#	46553
#	61058
#	74433
#	88772
#	101752
#	114543
#	128617
#	140666
#	154227
#	166666
#	179187
#	190617
#	205102
#	218632
#	232114
#	245945
#	255264
#
# Disc length: 3575 seconds
#
# Revision: 3
# Processed by: cddbd v1.5.2PL0 Copyright (c) Steve Scherf et al.
# Submitted via: CDex 1.51
#
DISCID=1a0df514
DTITLE=Helen Humes - Blue and Sentimental
DYEAR=2001
DGENRE=Blues
TTITLE0=He May Be Your Man  [1945]
TTITLE1=Every Now And Then  [1945]
TTITLE2=Unlucky Woman  [1945]
TTITLE3=Blue Prelude  [1945]
TTITLE4=It's Better To Give Than To Recieve  [1945]
TTITLE5=Please Let Me Forget  [1945]
TTITLE6=He Don't Love Me Anymore  [1945]
TTITLE7=See, See, Rider  [1945]
TTITLE8=Pleasing Man Blues  [1945]
TTITLE9=Central Avenue Boogie  [1945]
TTITLE10=Married Man Blues  [1946]
TTITLE11=Be Ba Ba Le Ba Boogie  [1946]
TTITLE12=Jet Propelled Papa  [1947]
TTITLE13=They Raided The Joint  [1947]
TTITLE14=Blue And Sentimental  [1947]
TTITLE15=I Just Refuse To Sing The Blues  [1947]
TTITLE16=Jumpin' On Sugar Hill  [1947]
TTITLE17=Mad About You  [1947]
TTITLE18=Flippity Flop Flop  [1947]
TTITLE19=Today I Sing The Blues  [1947]
EXTD=YEAR: 2001
EXTT0=
EXTT1=
EXTT2=
EXTT3=
EXTT4=
EXTT5=
EXTT6=
EXTT7=
EXTT8=
EXTT9=
EXTT10=
EXTT11=
EXTT12=
EXTT13=
EXTT14=
EXTT15=
EXTT16=
EXTT17=
EXTT18=
EXTT19=
PLAYORDER=
